# xmcd
# 
# Track frame offsets:
#     150
#     17762
#     37362
#     58605
#     83657
#     103242
#     126865
#     145350
#     166595
#     186627
#     210930
# 
# Disc length: 3079
# 
# Revision: 1
# Processed by: cddbd v1.5.2PL0 Copyright (c) Steve Scherf et al.
# Submitted via: fre:ac v1.0.31
# 
DISCID=9b0c050b
DTITLE=KONAMI - ときめきメモリアル ボーカル・ベスト・コレクション5 DISC2
DYEAR=1997
DGENRE=不明
TTITLE0=川口雅代／Aya's Cooking Lesson
TTITLE1=上田祐司／100％の自分
TTITLE2=栗原みきこ／あなたがいるから
TTITLE3=関根明子／夢、その続き
TTITLE4=よしきくりん／My energy
TTITLE5=笹木綾子／明日の花のように
TTITLE6=中友子／OH MY GOD！〜制御不能〜
TTITLE7=小野坂昌也／心からの笑顔
TTITLE8=菊池志穂／ゴールすんぜんっ
TTITLE9=鉄炮塚葉子／超（今世紀最大級）LOVE
TTITLE10=金月真美／ともだちの君へ
EXTD=YEAR: 1997
EXTT0=
EXTT1=
EXTT2=
EXTT3=
EXTT4=
EXTT5=
EXTT6=
EXTT7=
EXTT8=
EXTT9=
EXTT10=
PLAYORDER=
